<svg baseProfile="tiny" xmlns="http://www.w3.org/2000/svg" preserveAspectRatio="xMinYMin meet" viewBox="0 0 820 595" width="820" height="595"><g transform="translate(665 70)"><path fill-rule="evenodd" clip-rule="evenodd" fill="#373737" d="M16.289 0C7.294 0 0 7.294 0 16.291c0 7.197 4.667 13.302 11.141 15.457.814.148 1.112-.354 1.112-.785 0-.387-.014-1.412-.022-2.771-4.531.984-5.487-2.184-5.487-2.184-.741-1.881-1.809-2.383-1.809-2.383-1.479-1.01.112-.99.112-.99 1.635.115 2.495 1.68 2.495 1.68 1.453 2.488 3.813 1.77 4.741 1.354.148-1.053.569-1.771 1.034-2.178-3.617-.412-7.42-1.809-7.42-8.051 0-1.778.635-3.232 1.677-4.371-.167-.412-.727-2.068.16-4.311 0 0 1.368-.438 4.479 1.67a15.602 15.602 0 0 1 4.078-.549c1.384.006 2.776.188 4.078.549 3.11-2.108 4.476-1.67 4.476-1.67.889 2.242.329 3.898.162 4.311 1.043 1.139 1.674 2.593 1.674 4.371 0 6.258-3.809 7.635-7.438 8.038.585.504 1.105 1.498 1.105 3.018 0 2.178-.02 3.934-.02 4.469 0 .436.293.941 1.12.783 6.468-2.158 11.13-8.26 11.13-15.455C32.579 7.294 25.286 0 16.289 0z"/></g><g transform="translate(605 70)"><path d="M39.853 34.218c-.21-.194-2.29-.06-2.29-.06l-.023-2.199-1.017-1.162-2.41-.04-.002-.003c-.01.033-.001-2.42-.001-2.42l-1.125-.814s-2.188-.064-2.206-.081l-.176-2.248-2.026-2.398c.7-1.51 1.104-3.189 1.104-4.964C29.68 11.296 24.38 6 17.842 6 11.301 5.999 6 11.295 6 17.827c0 6.534 5.3 11.831 11.84 11.831 1.814 0 3.526-.42 5.062-1.15l13.505 13.478s5.662.085 5.662.082l.008-5.753s-.895-.873-2.224-2.097zM15.581 18.414a2.814 2.814 0 0 1-2.806-2.823 2.815 2.815 0 0 1 2.806-2.824 2.816 2.816 0 0 1 2.807 2.824 2.815 2.815 0 0 1-2.807 2.823z" fill="#EFC75E"/><path d="M15.583 11.636a3.946 3.946 0 1 0 0 7.891 3.946 3.946 0 0 0 0-7.891zm0 5.636a1.691 1.691 0 1 1 .001-3.383 1.691 1.691 0 0 1 0 3.383zm10.028 9.468c-1.076.937-1.48 1.197-2.634 1.816l13.51 13.51 4.46.008L25.61 26.739z" fill="#CA9F30"/></g><g transform="translate(145 300)"><g><path fill="none" d="M109.112 39.923h14.371l-7.161-17.734z"/><g><path fill="#F6F6F6" d="M27.118 25.994l-2.01-13.986-5.102-5.918-9.165 26.267-9.167 26.266 27.331-5.193 27.33-5.197-10.064-11.675-15.846 12.461z"/></g><path fill="#383838" d="M66.441 48.839h-.098l-7.664-22.037-1.835 1.444 9.45 27.169 13.348-37.951h-2.339zm15.441 5.357h17.537v-2.191h-15.2V35.196h14.81v-2.192h-14.81V19.656h15.2v-2.192H81.882zm19.046 0h2.387l4.918-12.081h16.127l4.919 12.081h2.387l-15.345-37.95-15.393 37.95zm8.184-14.273l7.21-17.733 7.161 17.733h-14.371zm45.596 9.742l-13.496-33.419-7.891 37.95h2.242l6.283-30.399h.099l12.763 31.618 12.812-31.618h.099l6.283 30.399h2.24l-7.892-37.95zm41.113-12.957l-7.016-3.654c-2.971-1.413-6.625-3.021-6.625-6.87s2.973-7.015 6.919-7.015c3.459 0 5.796 1.706 7.453 4.335l1.655-1.364c-1.753-3.166-5.26-5.163-8.964-5.163-5.504 0-9.402 3.849-9.402 9.306 0 2.922 1.364 5.066 3.801 6.576l6.625 3.506c3.167 1.56 7.404 3.314 7.404 7.455 0 4.872-4.237 8.672-9.061 8.672-4.435 0-7.307-2.728-8.865-6.625l-2.047.926c1.704 4.726 5.699 7.891 10.814 7.891 5.943 0 11.497-4.579 11.497-10.669.001-3.313-1.412-5.554-4.188-7.307z"/><g><path opacity=".8" fill="#97539C" d="M55.431 17.464l3.248 9.338 8.314-6.536-21.592-8.646-21.59-8.647 1.297 9.035 13.063 15.154 8.1 9.396 2.438-1.916 8.135-6.396-3.751-10.782z"/></g></g><g fill="#383838"><path d="M120.369 59.71c-1.018-1.244-2.806-2.086-4.436-2.086-3.296 0-6.014 2.84-6.014 6.084 0 1.542.667 2.997 1.771 4.084 1.105 1.052 2.683 1.823 4.243 1.823 1.525 0 3.453-.824 4.436-2.016v1.156c-1.245 1.034-2.771 1.648-4.4 1.648-3.682 0-6.89-3.067-6.89-6.768 0-3.752 3.155-6.802 6.907-6.802 1.596 0 3.208.632 4.383 1.719v1.158zm10.063 6.47c0 2.401-1.876 4.225-4.26 4.225-2.332 0-4.208-1.911-4.208-4.208 0-2.332 1.858-4.242 4.208-4.242 2.384-.001 4.26 1.822 4.26 4.225zm-7.679.016c0 1.842 1.455 3.473 3.366 3.473 1.981 0 3.523-1.509 3.523-3.473 0-1.998-1.525-3.506-3.523-3.506-1.928 0-3.366 1.631-3.366 3.506zm10.379-3.05h.035c.367-.754 1.174-1.192 2.033-1.192 1.035 0 1.858.525 2.278 1.473.438-.964 1.333-1.473 2.367-1.473 2.086 0 2.507 1.42 2.507 3.19v5.084h-.788V65.04c0-1.245-.193-2.35-1.735-2.35-1.684 0-2.087 1.473-2.087 2.876v4.662h-.789v-4.996c0-1.262-.228-2.542-1.806-2.542-1.7 0-2.016 1.771-2.016 3.086v4.452h-.789v-8.1h.789v1.018zm12.711.439h.034c.596-1.035 1.894-1.631 3.086-1.631 2.472 0 3.997 1.929 3.997 4.296 0 2.366-1.525 4.154-3.963 4.154-1.244 0-2.453-.543-3.12-1.578h-.034v6.137h-.79V62.129h.79v1.456zm-.053 2.769c0 1.894 1.28 3.314 3.227 3.314 1.894 0 3.155-1.596 3.155-3.402 0-1.858-1.21-3.576-3.19-3.576-2.07 0-3.192 1.718-3.192 3.664zm16.76-.174c0 2.401-1.877 4.225-4.261 4.225-2.332 0-4.208-1.911-4.208-4.208 0-2.332 1.858-4.242 4.208-4.242 2.384-.001 4.261 1.822 4.261 4.225zm-7.679.016c0 1.842 1.455 3.473 3.366 3.473 1.981 0 3.523-1.509 3.523-3.473 0-1.998-1.525-3.506-3.523-3.506-1.929 0-3.366 1.631-3.366 3.506zm10.379-2.803h.035c.474-.895 1.35-1.438 2.401-1.438 2.087 0 2.665 1.297 2.665 3.384v4.891h-.789v-4.891c0-1.455-.175-2.647-1.945-2.647-2.034 0-2.367 1.894-2.367 3.541v3.997h-.789v-8.1h.789v1.263zm7.801 2.857c-.053 2.051 1.368 3.419 3.243 3.419 1.263 0 2.279-.755 2.857-1.842l.667.386c-.736 1.402-2.033 2.191-3.629 2.191-2.402 0-3.927-1.945-3.927-4.242 0-2.262 1.56-4.208 3.927-4.208 2.455 0 3.909 1.964 3.892 4.296h-7.03zm6.241-.736c-.192-1.491-1.42-2.823-3.085-2.823-1.648 0-3.016 1.297-3.156 2.823h6.241zm3.49-2.121h.035c.474-.895 1.35-1.438 2.401-1.438 2.087 0 2.665 1.297 2.665 3.384v4.891h-.789v-4.891c0-1.455-.175-2.647-1.945-2.647-2.034 0-2.367 1.894-2.367 3.541v3.997h-.789v-8.1h.789v1.263zm8.677 6.836h-.789v-7.363h-.894v-.736h.894v-2.893h.789v2.893h1.42v.736h-1.42v7.363zm6.19-6.627a1.54 1.54 0 0 0-1.42-.911c-.684 0-1.385.561-1.385 1.263 0 1.945 3.944.999 3.944 3.927 0 1.49-1.157 2.524-2.612 2.524-1.351 0-2.454-.823-2.788-2.139l.771-.246c.299.965.947 1.649 2.017 1.649a1.812 1.812 0 0 0 1.823-1.824c0-1-.771-1.314-1.578-1.595-1.104-.404-2.366-.877-2.366-2.244 0-1.228 1.034-2.052 2.209-2.052.824 0 1.718.544 2.069 1.297l-.684.351z"/></g><path fill="none" d="M109.092 39.992h14.33l-7.14-17.681z"/><g><path fill="#F6F6F6" d="M27.334 26.104l-2.003-13.946-5.088-5.902-9.14 26.191-9.14 26.192 27.252-5.18 27.252-5.18-10.035-11.642-15.8 12.426z"/></g></g><g transform="translate(355 300)"><path fill="none" d="M108.828 38.216h14.365l-7.158-17.725z"/><g><path fill="#F6F6F6" d="M26.864 24.294l-2.009-13.982-5.1-5.916-9.162 26.257L1.43 56.91l27.32-5.193 27.32-5.193-10.06-11.67-15.84 12.454z"/></g><path fill="#383838" d="M66.172 47.128h-.098l-7.661-22.026-1.834 1.442 9.447 27.158 13.342-37.935H77.03zm15.436 5.357h17.53v-2.192H83.945v-16.8h14.804v-2.192H83.945V17.958h15.193v-2.191h-17.53zm19.039 0h2.385l4.917-12.077h16.12l4.918 12.077h2.385l-15.338-37.936-15.387 37.936zm8.181-14.269l7.207-17.726 7.158 17.726h-14.365zm45.578 9.74l-13.49-33.407-7.889 37.936h2.24l6.281-30.388h.1l12.758 31.605 12.806-31.605h.1l6.279 30.388h2.242l-7.89-37.936zm41.097-12.954l-7.014-3.652c-2.969-1.412-6.623-3.02-6.623-6.866 0-3.847 2.973-7.013 6.918-7.013 3.457 0 5.795 1.705 7.451 4.334l1.654-1.363c-1.754-3.166-5.26-5.162-8.961-5.162-5.502 0-9.398 3.847-9.398 9.301 0 2.922 1.363 5.064 3.799 6.574l6.623 3.506c3.164 1.559 7.402 3.312 7.402 7.451 0 4.87-4.238 8.668-9.059 8.668-4.432 0-7.305-2.727-8.861-6.623l-2.047.925c1.703 4.724 5.697 7.889 10.811 7.889 5.941 0 11.492-4.578 11.492-10.665.001-3.31-1.411-5.551-4.187-7.304z"/><g><path opacity=".8" fill="#9EAF53" d="M55.167 15.767l3.246 9.335 8.311-6.534L45.14 9.925 23.558 1.281l1.297 9.031L37.913 25.46l8.097 9.394 2.437-1.916 8.132-6.394-3.75-10.777z"/></g><g fill="#383838"><path d="M138.425 63.787c.036 1.697-.215 3.18-1.41 4.483-1.287 1.393-3.216 2.179-5.109 2.179-3.732 0-6.91-3.143-6.91-6.858 0-3.857 3.161-6.965 7.02-6.965 2.446 0 4.428 1.214 5.838 3.143l-.694.554c-1.198-1.786-3.019-2.893-5.198-2.893-3.286 0-6.108 2.875-6.108 6.107 0 3.322 2.751 6.108 6.108 6.108 1.446 0 2.856-.59 3.966-1.482 1.159-.982 1.588-2.108 1.643-3.572h-4.822v-.804h5.676zm2.016 2.43c-.053 2.089 1.392 3.482 3.303 3.482 1.289 0 2.323-.768 2.913-1.875l.679.393c-.749 1.429-2.072 2.232-3.696 2.232-2.449 0-4.002-1.982-4.002-4.321 0-2.304 1.592-4.287 4.002-4.287 2.498 0 3.981 2.001 3.963 4.376h-7.162zm6.357-.751c-.196-1.518-1.446-2.875-3.142-2.875-1.679 0-3.072 1.322-3.216 2.875h6.358zm3.553-2.161h.035c.482-.91 1.375-1.464 2.448-1.464 2.123 0 2.713 1.322 2.713 3.447v4.983h-.802v-4.983c0-1.482-.181-2.696-1.984-2.696-2.07 0-2.41 1.929-2.41 3.607v4.072h-.804V62.02h.804v1.285zm7.945 2.912c-.053 2.089 1.392 3.482 3.303 3.482 1.289 0 2.323-.768 2.913-1.875l.679.393c-.749 1.429-2.072 2.232-3.696 2.232-2.448 0-4.002-1.982-4.002-4.321 0-2.304 1.592-4.287 4.002-4.287 2.498 0 3.981 2.001 3.963 4.376h-7.162zm6.358-.751c-.196-1.518-1.446-2.875-3.142-2.875-1.679 0-3.072 1.322-3.216 2.875h6.358zm3.553-2.375h.037c.321-.75.911-1.25 1.785-1.25.321 0 .59.072.875.196l-.429.715a1.1 1.1 0 0 0-.571-.161c-1.804 0-1.697 2.25-1.697 3.464v4.215h-.802v-8.25h.802v1.071zm11.412 7.18h-.805v-1.482h-.036c-.605 1.053-1.929 1.66-3.141 1.66-2.501 0-4.073-1.946-4.073-4.357s1.554-4.251 4.036-4.251c1.267 0 2.483.572 3.178 1.608h.036V62.02h.805v8.251zm-7.25-4.18c0 1.893 1.25 3.607 3.25 3.607 2.107 0 3.25-1.714 3.25-3.697 0-1.911-1.305-3.411-3.305-3.411-1.893.001-3.195 1.715-3.195 3.501zm10.889 4.18h-.802V62.77h-.911v-.75h.911v-2.947h.802v2.947h1.448v.75h-1.448v7.501zm10.664-4.126c0 2.447-1.911 4.304-4.339 4.304a4.3 4.3 0 0 1-4.289-4.286c0-2.375 1.894-4.322 4.289-4.322 2.428-.001 4.339 1.857 4.339 4.304zm-7.823.018c0 1.875 1.482 3.536 3.43 3.536 2.017 0 3.59-1.536 3.59-3.536 0-2.036-1.554-3.572-3.59-3.572-1.966 0-3.43 1.66-3.43 3.572zm10.57-3.072h.035c.323-.75.913-1.25 1.787-1.25.321 0 .59.072.875.196l-.429.715a1.105 1.105 0 0 0-.571-.161c-1.804 0-1.697 2.25-1.697 3.464v4.215h-.804v-8.25h.804v1.071z"/></g></g><g transform="translate(0 300)"><g><path fill="#F6F6F6" d="M54.751-84.524l-3.874-26.967-9.835-11.409-17.671 50.639-17.672 50.64L58.39-31.637l52.691-10.016L91.678-64.16l-30.55 24.019z"/></g><g><g opacity=".5"><path fill="#4A9EA3" d="M96.377-67.855l-4.699 3.695-15.617-18.116-25.184-29.214-2.502-17.417L90-112.238l41.626 16.668"/></g></g><g><path fill="#F6F6F6" d="M54.751 48.476l-3.874-26.967L41.042 10.1 23.371 60.739l-17.672 50.64 52.691-10.016 52.691-10.016L91.678 68.84l-30.55 24.019z"/></g><g><g opacity=".5"><path fill="#9EAE52" d="M96.377 65.145l-4.699 3.695-15.617-18.116-25.184-29.215-2.502-17.417L90 20.762l41.626 16.668"/></g></g></g><g transform="translate(0 425)"><path fill="none" d="M109.092 39.992h14.33l-7.14-17.681z"/><g><path fill="#F6F6F6" d="M27.334 26.104l-2.003-13.946-5.088-5.902-9.14 26.191-9.14 26.192 27.252-5.18 27.252-5.18-10.035-11.642-15.8 12.426z"/></g><path fill="#383838" d="M66.543 48.883h-.097l-7.642-21.975-1.83 1.44 9.424 27.091 13.31-37.841h-2.333zm15.398 5.342h17.486v-2.186H84.271v-16.76h14.768v-2.185H84.271V19.783h15.156v-2.185H81.941zm18.991 0h2.38l4.905-12.047h16.08l4.904 12.047h2.381l-15.301-37.842-15.349 37.842zm8.16-14.233l7.189-17.682 7.141 17.682h-14.33zm45.465 9.715L141.1 16.383l-7.867 37.842h2.236l6.264-30.313h.098l12.726 31.527 12.776-31.527h.099l6.264 30.313h2.234l-7.869-37.842zm40.996-12.922l-6.996-3.643c-2.963-1.408-6.605-3.012-6.605-6.85s2.965-6.996 6.898-6.996c3.449 0 5.781 1.701 7.434 4.322l1.648-1.359c-1.748-3.156-5.244-5.148-8.938-5.148-5.488 0-9.375 3.84-9.375 9.279 0 2.914 1.361 5.053 3.789 6.557l6.607 3.498c3.158 1.553 7.383 3.303 7.383 7.432 0 4.859-4.225 8.648-9.035 8.648-4.422 0-7.285-2.721-8.84-6.607l-2.041.924c1.699 4.711 5.684 7.869 10.785 7.869 5.924 0 11.463-4.566 11.463-10.639.001-3.302-1.409-5.537-4.177-7.287z"/><g><path opacity=".8" fill="#C45454" d="M55.566 17.598l3.238 9.31 8.29-6.517-21.53-8.621-21.527-8.622 1.294 9.01 13.025 15.11 8.076 9.369 2.431-1.91 8.111-6.379-3.74-10.75z"/></g><g fill="#383838"><path d="M130.554 57.011v12.956c0 1.646-.403 3.012-2.329 3.012-.962 0-1.786-.578-2.188-1.435l.631-.474c.297.63.928 1.121 1.627 1.121 1.313 0 1.419-1.226 1.419-2.225V57.011h.84zm9.875 13.202h-.786V68.76h-.036c-.595 1.032-1.892 1.627-3.081 1.627-2.451 0-3.992-1.907-3.992-4.271s1.523-4.167 3.956-4.167c1.243 0 2.435.56 3.117 1.575h.036v-1.4h.786v8.089zm-7.109-4.098c0 1.856 1.226 3.537 3.188 3.537 2.065 0 3.188-1.681 3.188-3.625 0-1.873-1.279-3.344-3.239-3.344-1.858.001-3.137 1.681-3.137 3.432zm12.276 2.68l2.872-6.672h.804l-3.693 8.527-3.713-8.527h.807l2.923 6.672zm12.222 1.418h-.788V68.76h-.036c-.595 1.032-1.89 1.627-3.081 1.627-2.451 0-3.991-1.907-3.991-4.271s1.522-4.167 3.957-4.167c1.243 0 2.433.56 3.115 1.575h.036v-1.4h.788v8.089zm-7.109-4.098c0 1.856 1.226 3.537 3.187 3.537 2.066 0 3.186-1.681 3.186-3.625 0-1.873-1.277-3.344-3.239-3.344-1.856.001-3.134 1.681-3.134 3.432zm15.986-6.934c-.595-.944-1.437-1.558-2.68-1.558-1.417 0-2.485 1.138-2.485 2.521s1.313 1.961 2.382 2.469l2.521 1.313c.997.63 1.507 1.437 1.507 2.627 0 2.188-1.996 3.833-4.134 3.833-1.838 0-3.272-1.137-3.886-2.836l.734-.333c.562 1.401 1.593 2.382 3.188 2.382 1.732 0 3.257-1.366 3.257-3.116 0-1.489-1.524-2.119-2.662-2.68l-2.381-1.261c-.876-.542-1.365-1.313-1.365-2.363 0-1.962 1.399-3.345 3.379-3.345 1.331 0 2.591.719 3.221 1.856l-.596.491zm9.544 4.816c-.771-.841-1.698-1.313-2.854-1.313-1.91 0-3.345 1.629-3.345 3.467 0 1.839 1.417 3.502 3.326 3.502 1.156 0 2.241-.561 2.976-1.453v1.067a4.454 4.454 0 0 1-2.941 1.12c-2.398 0-4.149-1.873-4.149-4.236 0-2.347 1.786-4.202 4.167-4.202 1.05 0 2.015.315 2.82.998v1.05zm2.942-.823h.033c.315-.735.895-1.226 1.753-1.226.313 0 .576.069.855.192l-.419.7a1.092 1.092 0 0 0-.561-.157c-1.769 0-1.662 2.206-1.662 3.396v4.133h-.789v-8.09h.789v1.052zm5.496-3.747c0 .403-.313.718-.717.718s-.719-.314-.719-.718a.72.72 0 0 1 1.436 0zm-.332 10.786h-.788v-8.09h.788v8.09zm3.801-6.637h.033c.595-1.033 1.893-1.628 3.082-1.628 2.469 0 3.993 1.926 3.993 4.29 0 2.363-1.524 4.148-3.958 4.148-1.243 0-2.45-.541-3.117-1.575h-.033v6.129h-.789V62.123h.789v1.453zm-.055 2.767c0 1.891 1.279 3.31 3.224 3.31 1.89 0 3.151-1.594 3.151-3.397 0-1.856-1.21-3.571-3.188-3.571-2.065-.001-3.187 1.713-3.187 3.658zm9.948 3.87h-.788v-7.354h-.893v-.735h.893v-2.889h.788v2.889h1.419v.735h-1.419v7.354z"/></g></g><g transform="translate(0 510)"><path fill="none" d="M109.154 40.116h14.434l-7.192-17.813z"/><g><path fill="#F6F6F6" d="M26.791 26.125l-2.018-14.049-5.126-5.945-9.207 26.385-9.207 26.383 27.453-5.216 27.453-5.219-10.108-11.727-15.918 12.516z"/></g><path fill="#383838" d="M66.291 49.071h-.099l-7.698-22.134-1.843 1.449 9.491 27.292 13.407-38.121h-2.347zm15.51 5.383h17.616v-2.202H84.149V35.368h14.877v-2.201H84.149V19.759h15.268v-2.202H81.801zm19.132 0h2.397l4.941-12.137h16.198l4.941 12.137h2.397l-15.413-38.121-15.461 38.121zm8.221-14.338l7.242-17.813 7.192 17.813h-14.434zm45.8 9.787l-13.556-33.57-7.926 38.121h2.251l6.312-30.537h.098l12.821 31.761 12.87-31.761h.098l6.312 30.537h2.251l-7.928-38.121zm41.297-13.018l-7.047-3.67c-2.984-1.42-6.655-3.033-6.655-6.9 0-3.866 2.986-7.047 6.95-7.047 3.475 0 5.822 1.714 7.487 4.354l1.662-1.37c-1.761-3.181-5.283-5.187-9.004-5.187-5.528 0-9.444 3.866-9.444 9.347 0 2.936 1.37 5.09 3.817 6.606l6.655 3.521c3.181 1.566 7.438 3.33 7.438 7.488 0 4.895-4.257 8.711-9.102 8.711-4.454 0-7.34-2.74-8.905-6.656l-2.056.932c1.712 4.746 5.725 7.926 10.863 7.926 5.97 0 11.548-4.6 11.548-10.717.001-3.324-1.417-5.576-4.207-7.338z"/><g><path opacity=".8" fill="#4864A1" d="M55.231 17.557l3.263 9.38 8.351-6.566-21.688-8.685L23.469 3l1.304 9.076 13.12 15.221 8.138 9.44 2.448-1.926 8.172-6.425-3.77-10.829z"/></g><g fill="#383838"><path d="M122.674 61.508h-.031l-4.178 10.309-4.162-10.309h-.031l-2.049 9.913h-.731l2.573-12.374 4.4 10.897 4.416-10.897 2.573 12.374h-.73l-2.05-9.913zm4.14 6.307c-.047 1.859 1.239 3.098 2.939 3.098 1.144 0 2.064-.684 2.589-1.668l.604.35c-.667 1.27-1.843 1.984-3.288 1.984-2.176 0-3.559-1.762-3.559-3.844 0-2.049 1.414-3.813 3.559-3.813 2.224 0 3.542 1.779 3.526 3.893h-6.37zm5.655-.668c-.175-1.35-1.286-2.557-2.796-2.557-1.493 0-2.731 1.176-2.859 2.557h5.655zm3.238 4.274h-.715v-6.672h-.811v-.666h.811v-2.622h.715v2.622h1.286v.666h-1.286v6.672zm3.238-13.104v6.908h.032a2.406 2.406 0 0 1 2.176-1.303c1.891 0 2.415 1.176 2.415 3.066v4.432h-.715v-4.432c0-1.318-.159-2.398-1.764-2.398-1.843 0-2.145 1.715-2.145 3.209v3.621h-.715V58.317h.716zm14.023 9.434c0 2.178-1.7 3.828-3.86 3.828a3.822 3.822 0 0 1-3.812-3.811c0-2.113 1.684-3.846 3.812-3.846 2.16.001 3.86 1.653 3.86 3.829zm-6.958.018c0 1.668 1.319 3.145 3.05 3.145 1.795 0 3.193-1.367 3.193-3.145 0-1.813-1.382-3.178-3.193-3.178-1.747 0-3.05 1.476-3.05 3.178zm14.42 2.334h-.031c-.54.938-1.716 1.477-2.796 1.477-2.224 0-3.621-1.73-3.621-3.875s1.382-3.781 3.59-3.781c1.127 0 2.207.51 2.827 1.43h.031v-7.035h.715v13.104h-.715v-1.32zm.048-2.479c0-1.699-1.159-3.033-2.938-3.033-1.684 0-2.844 1.525-2.844 3.113 0 1.684 1.112 3.209 2.892 3.209 1.873 0 2.89-1.525 2.89-3.289zm10.067.127c0 2.178-1.7 3.828-3.86 3.828a3.823 3.823 0 0 1-3.813-3.811c0-2.113 1.685-3.846 3.813-3.846 2.16.001 3.86 1.653 3.86 3.829zm-6.958.018c0 1.668 1.318 3.145 3.05 3.145 1.795 0 3.193-1.367 3.193-3.145 0-1.813-1.382-3.178-3.193-3.178-1.747 0-3.05 1.476-3.05 3.178zm9.4 3.652h-.715V58.317h.715v13.104zm9.403-3.67c0 2.178-1.7 3.828-3.86 3.828a3.822 3.822 0 0 1-3.812-3.811c0-2.113 1.684-3.846 3.812-3.846 2.16.001 3.86 1.653 3.86 3.829zm-6.958.018c0 1.668 1.319 3.145 3.05 3.145 1.795 0 3.193-1.367 3.193-3.145 0-1.813-1.382-3.178-3.193-3.178-1.747 0-3.05 1.476-3.05 3.178zm15.245 3.302c0 1.129-.031 2.145-.73 3.113-.683.938-1.764 1.414-2.923 1.414-1.922 0-3.511-1.127-3.622-3.145h.715c.08 1.525 1.366 2.477 2.844 2.477.921 0 1.811-.316 2.351-1.096.572-.842.651-1.795.651-2.779v-.906h-.031a3.632 3.632 0 0 1-2.859 1.43c-2.129 0-3.559-1.795-3.559-3.844 0-2.111 1.51-3.813 3.653-3.813 1.191 0 2.081.51 2.765 1.43h.031v-1.27h.715v6.989zm-6.449-3.367c0 1.684 1.112 3.209 2.892 3.209 1.874 0 2.891-1.525 2.891-3.289 0-1.699-1.159-3.033-2.938-3.033-1.685 0-2.845 1.525-2.845 3.113zm7.558-3.621h.747l3.129 6.639 2.812-6.639h.73L194.28 75.71h-.73l1.763-4.162-3.527-7.465z"/></g></g><g transform="translate(210 425)"><path fill="none" d="M109.427 39.293h14.1l-7.026-17.4z"/><path fill="none" d="M109.506 41.173h14.239l-7.095-17.57z"/><g><path fill="#F6F6F6" d="M28.26 27.373l-1.99-13.86-5.057-5.864-9.082 26.028-9.082 26.025 27.081-5.146 27.081-5.147-9.972-11.569-15.701 12.346z"/></g><path fill="#383838" d="M67.224 50.008h-.098l-7.593-21.835-1.818 1.43 9.363 26.92 13.226-37.604h-2.316zm15.3 5.309h17.377v-2.171h-15.06V36.491h14.674v-2.173H84.841V21.092h15.06v-2.173H82.524zm18.872 0h2.365l4.874-11.973h15.98l4.873 11.973h2.365L116.65 17.713l-15.254 37.604zm8.11-14.144l7.144-17.57 7.095 17.57h-14.239zm45.178 9.654l-13.371-33.114-7.818 37.604h2.219l6.227-30.121h.098l12.645 31.327 12.695-31.327h.098l6.226 30.121h2.221l-7.821-37.604zm40.738-12.841l-6.951-3.618c-2.945-1.402-6.564-2.994-6.564-6.808s2.946-6.95 6.855-6.95c3.426 0 5.745 1.689 7.386 4.294l1.639-1.351c-1.736-3.137-5.211-5.115-8.88-5.115-5.453 0-9.317 3.813-9.317 9.219 0 2.896 1.353 5.021 3.765 6.516l6.565 3.477c3.139 1.544 7.338 3.282 7.338 7.385 0 4.828-4.199 8.592-8.979 8.592-4.394 0-7.24-2.702-8.784-6.564l-2.028.918c1.688 4.682 5.648 7.818 10.716 7.818 5.888 0 11.392-4.536 11.392-10.571-.001-3.284-1.403-5.504-4.153-7.242z"/><g><path opacity=".8" fill="#BC812A" d="M56.315 18.919l3.218 9.254 8.238-6.477-21.395-8.566-21.393-8.568 1.287 8.951 12.941 15.015 8.028 9.312 2.415-1.9 8.061-6.337-3.718-10.684z"/></g><g fill="#383838"><path d="M173.05 60.634c-.625-.993-1.509-1.637-2.815-1.637-1.489 0-2.611 1.195-2.611 2.649 0 1.453 1.38 2.061 2.502 2.594l2.649 1.38c1.049.662 1.582 1.509 1.582 2.76 0 2.3-2.097 4.029-4.342 4.029-1.932 0-3.44-1.195-4.084-2.98l.771-.351c.589 1.473 1.675 2.503 3.35 2.503 1.821 0 3.422-1.436 3.422-3.274 0-1.564-1.601-2.228-2.796-2.815l-2.503-1.325c-.92-.569-1.435-1.38-1.435-2.482 0-2.062 1.471-3.515 3.55-3.515 1.399 0 2.724.755 3.387 1.95l-.627.514zm10.986 11.592h-.827v-1.527h-.038c-.625 1.086-1.987 1.711-3.237 1.711-2.576 0-4.195-2.005-4.195-4.489s1.601-4.379 4.158-4.379c1.307 0 2.558.588 3.274 1.655h.038v-1.472h.827v8.501zm-7.47-4.306c0 1.95 1.287 3.717 3.349 3.717 2.171 0 3.349-1.767 3.349-3.81 0-1.968-1.344-3.514-3.404-3.514-1.951 0-3.294 1.766-3.294 3.607zm13.872-2.649a1.614 1.614 0 0 0-1.489-.957c-.718 0-1.454.589-1.454 1.324 0 2.043 4.141 1.049 4.141 4.122 0 1.563-1.215 2.649-2.742 2.649-1.417 0-2.575-.864-2.926-2.244l.81-.258c.313 1.012.994 1.729 2.116 1.729a1.9 1.9 0 0 0 1.913-1.913c0-1.05-.81-1.38-1.655-1.675-1.16-.424-2.484-.92-2.484-2.355 0-1.287 1.085-2.152 2.318-2.152.865 0 1.804.57 2.172 1.361l-.72.369zm6.901 0a1.615 1.615 0 0 0-1.49-.957c-.717 0-1.453.589-1.453 1.324 0 2.043 4.14 1.049 4.14 4.122 0 1.563-1.214 2.649-2.742 2.649-1.417 0-2.575-.864-2.926-2.244l.81-.258c.313 1.012.994 1.729 2.116 1.729a1.901 1.901 0 0 0 1.914-1.913c0-1.05-.81-1.38-1.656-1.675-1.159-.424-2.483-.92-2.483-2.355 0-1.287 1.085-2.152 2.318-2.152.864 0 1.803.57 2.171 1.361l-.719.369z"/></g></g><g transform="translate(210 510)"><g><path fill="none" d="M112.843 39.155h14.84l-7.394-18.311z"/><g><path fill="#F6F6F6" d="M28.173 24.773l-2.075-14.444-5.269-6.111-9.465 27.124-9.466 27.124 28.224-5.364 28.222-5.365-10.392-12.056-16.364 12.866z"/></g><path fill="#383838" d="M68.779 48.361h-.101l-7.914-22.754-1.895 1.491 9.759 28.054 13.783-39.188h-2.414zm15.945 5.534h18.11v-2.264H87.139V34.275h15.293v-2.264H87.139V18.228h15.695v-2.264h-18.11zm19.668 0h2.465l5.081-12.476h16.651l5.081 12.476h2.465l-15.847-39.188-15.896 39.188zm8.451-14.74l7.445-18.311 7.395 18.311h-14.84zm47.085 10.061l-13.935-34.51-8.149 39.189h2.314l6.489-31.392h.101l13.18 32.649 13.23-32.649h.101l6.49 31.392h2.313l-8.149-39.189zm42.455-13.381l-7.244-3.773c-3.068-1.459-6.842-3.119-6.842-7.093s3.069-7.244 7.144-7.244c3.572 0 5.986 1.761 7.697 4.477l1.71-1.408c-1.811-3.27-5.433-5.333-9.256-5.333-5.685 0-9.709 3.974-9.709 9.608 0 3.019 1.408 5.232 3.924 6.791l6.842 3.622c3.27 1.61 7.646 3.421 7.646 7.697 0 5.031-4.377 8.955-9.357 8.955-4.578 0-7.546-2.817-9.155-6.842l-2.113.956c1.761 4.879 5.886 8.149 11.168 8.149 6.138 0 11.872-4.729 11.872-11.017-.001-3.42-1.46-5.734-4.327-7.545z"/><g><path opacity=".5" fill="#4A9EA3" d="M57.41 15.964l3.354 9.643 8.585-6.75-22.296-8.928L24.757 1l1.341 9.329 13.489 15.649 8.365 9.703 2.517-1.979 8.4-6.604-3.874-11.134z"/></g></g></g><g transform="translate(605)"><g><path fill="#F6F6F6" d="M28.173 24.773l-2.075-14.444-5.269-6.111-9.465 27.124-9.466 27.124 28.224-5.364 28.222-5.366-10.392-12.054-16.364 12.865z"/></g><path fill="#F6F6F6" d="M68.779 48.361h-.101l-7.914-22.754-1.895 1.491 9.759 28.054 13.783-39.188h-2.414zm15.945 5.534h18.11v-2.264H87.139V34.275h15.293v-2.264H87.139V18.228h15.695v-2.264h-18.11zm19.668 0h2.465l5.081-12.476h16.65l5.082 12.476h2.465l-15.848-39.188-15.895 39.188zm8.45-14.74l7.445-18.312 7.396 18.312h-14.841zm47.086 10.061l-13.935-34.51-8.149 39.189h2.315l6.488-31.392h.102l13.179 32.649 13.231-32.649h.099l6.491 31.392h2.313l-8.149-39.189zm42.455-13.381l-7.244-3.772c-3.068-1.459-6.842-3.12-6.842-7.094s3.068-7.244 7.144-7.244c3.572 0 5.985 1.761 7.697 4.477l1.71-1.408c-1.811-3.27-5.434-5.333-9.256-5.333-5.686 0-9.709 3.974-9.709 9.608 0 3.019 1.408 5.232 3.924 6.791l6.842 3.623c3.27 1.609 7.646 3.42 7.646 7.697 0 5.03-4.377 8.954-9.357 8.954-4.578 0-7.546-2.817-9.154-6.842l-2.113.956c1.761 4.879 5.886 8.148 11.168 8.148 6.138 0 11.871-4.729 11.871-11.017-.001-3.419-1.46-5.733-4.327-7.544z"/><g><path opacity=".5" fill="#4A9EA3" d="M57.41 15.964l3.354 9.643 8.585-6.75-22.296-8.928L24.757 1l1.341 9.329 13.489 15.649 8.365 9.704 2.517-1.98 8.4-6.604-3.874-11.134z"/></g></g><g><path fill="#F6F6F6" d="M149.251 161.976l-3.874-26.967-9.835-11.409-17.671 50.639-17.672 50.64 52.691-10.016 52.691-10.016-19.403-22.507-30.55 24.019z"/></g><g><g opacity=".5"><path fill="#4A9EA3" d="M190.877 178.645l-4.699 3.695-15.617-18.116-25.184-29.214-2.502-17.417 41.625 16.67 41.626 16.668"/></g></g></svg>