<svg baseProfile="tiny" xmlns="http://www.w3.org/2000/svg" preserveAspectRatio="xMinYMin meet" viewBox="0 0 520 520" width="520" height="520"><circle cx="256" cy="256" r="256" fill="#fdfeff"/><path d="M386.616 193.748c1.596 32.004-8.396 61.64-26.144 85.068-28.752 37.956-37.896 77.376-37.896 120.368H190.908c0-42.956-9.728-81.832-39.196-122.112-15.724-21.496-25.012-48-25.012-76.672 0-74.564 62.812-134.452 138.396-129.728 65.332 4.084 118.26 57.696 121.52 123.076z" fill="#f5ea07"/><path d="M148.364 211.708c-1.192-31.608 3.552-54.432 32.556-87.116 32.484-28.876 54.972-33.74 87.132-32.516-29.824 4.184-50.096 8.76-82.032 37.624-30.492 33.608-34.152 56.948-37.656 82.008z" fill="#fdfeff"/><path d="M281.44 457.204h-49.4v12.472a6.325 6.325 0 0 0 6.324 6.324h36.756a6.325 6.325 0 0 0 6.324-6.324v-12.472h-.004z" fill="#d2d2d4"/><path d="M297.916 460.824h-82.352c-13.616 0-24.656-11.04-24.656-24.656v-48.74h131.668v48.74c-.004 13.616-11.04 24.656-24.66 24.656z" fill="#656d7a"/><g fill="#4d535f"><path d="M190.908 399.2h131.668v7.064H190.908zm0 15.72h131.668v7.064H190.908zm0 15.76h131.668v7.064H190.908z"/></g><g fill="#656d7a"><path d="M94.008 191.768h22.552V205.7H94.008zm44.825 83.087l-19.53 11.276-6.966-12.065 19.53-11.276zM401.16 123.392l-19.527 11.274-6.966-12.065 19.526-11.274zm-57.017-62.098L332.87 80.821l-12.065-6.966 11.274-19.527zM249.76 36h13.932v22.548H249.76zm-68.35 18.346l11.274 19.526-12.065 6.966-11.274-19.526zm200.2 208.452l19.53 11.276-6.966 12.065-19.53-11.276zM119.275 111.337L138.8 122.61l-6.966 12.065-19.526-11.274z"/></g><path d="M286.624 186.664c0-16.504-13.38-29.884-29.884-29.884s-29.884 13.38-29.884 29.884c0 10.496 5.424 19.716 13.612 25.044v35.868h32.544v-35.868c8.188-5.332 13.612-14.548 13.612-25.044z" fill="#4d535f"/><path d="M398.116 143.584c-17 0-31.204 14.92-34.404 34.652H247.968v16.836h115.744c3.2 19.732 17.404 34.652 34.404 34.652 19.348 0 35.088-19.32 35.088-43.072s-15.744-43.068-35.088-43.068zm18.252 43.072c0 14.468-8.188 26.236-18.252 26.236-10.064 0-18.252-11.768-18.252-26.236s8.188-26.24 18.252-26.24c10.064.004 18.252 11.772 18.252 26.24z" fill="#656d7a"/></svg>