<svg baseProfile="tiny" xmlns="http://www.w3.org/2000/svg" preserveAspectRatio="xMinYMin meet" viewBox="0 0 45 45" width="45" height="45"><title>lightbulb</title><g fill="none" fill-rule="evenodd"><g fill-rule="nonzero"><circle fill="#FDFEFF" cx="20" cy="20" r="20"/><path d="M30.204 15.137a10.12 10.12 0 0 1-2.042 6.645c-2.246 2.966-2.96 6.046-2.96 9.404H14.914c0-3.356-.76-6.393-3.063-9.54a10.111 10.111 0 0 1-1.954-5.99c0-5.825 4.908-10.504 10.813-10.135 5.104.32 9.239 4.508 9.493 9.616z" fill="#F5EA07"/><path d="M11.59 16.54c-.092-2.47.278-4.253 2.544-6.806 2.538-2.256 4.295-2.636 6.808-2.54-2.33.326-3.914.684-6.41 2.939-2.381 2.625-2.667 4.449-2.941 6.407z" fill="#FDFEFF"/><path d="M21.988 35.72h-3.86v.973c0 .273.221.494.494.495h2.872a.494.494 0 0 0 .494-.495v-.974z" fill="#D2D2D4"/><path d="M23.275 36.002H16.84a1.926 1.926 0 0 1-1.926-1.926v-3.808H25.2v3.808a1.927 1.927 0 0 1-1.926 1.926z" fill="#656D7A"/><g transform="translate(14.844 31.172)" fill="#4D535F"><path d="M.07.016h10.287v.551H.072V.016zm0 1.228h10.287v.552H.072v-.552zm0 1.231h10.287v.552H.072v-.552z"/></g><g transform="translate(7.344 2.813)" fill="#656D7A"><path d="M0 12.17h1.762v1.088H.002v-1.089zm3.503 6.49l-1.526.881-.544-.942 1.525-.881.545.943zM23.997 6.829l-1.526.88-.544-.942 1.526-.881.544.942zm-4.455-4.852l-.88 1.526-.943-.545.88-1.525.943.544zM12.17 0h1.088v1.762H12.17V0zM6.83 1.433l.88 1.526-.942.544-.88-1.526.942-.544zm15.64 16.286l1.526.88-.544.943-1.526-.88.545-.943zM1.976 5.886l1.525.88-.544.943-1.526-.88.545-.943z"/></g><path d="M22.392 14.583a2.335 2.335 0 1 0-3.605 1.957v2.802h2.542V16.54a2.331 2.331 0 0 0 1.063-1.957z" fill="#4D535F"/><path d="M31.103 11.217c-1.328 0-2.438 1.166-2.688 2.708h-9.043v1.315h9.043c.25 1.542 1.36 2.707 2.688 2.707 1.511 0 2.741-1.51 2.741-3.365 0-1.855-1.23-3.365-2.741-3.365zm1.426 3.365c0 1.13-.64 2.05-1.426 2.05-.786 0-1.426-.92-1.426-2.05s.64-2.05 1.426-2.05c.786 0 1.426.92 1.426 2.05z" fill="#656D7A"/></g></g></svg>