<?xml version="1.0" encoding="UTF-8"?>
<svg width="40px" height="40px" viewBox="0 0 40 40" version="1.1" xmlns="http://www.w3.org/2000/svg" xmlns:xlink="http://www.w3.org/1999/xlink">
    <!-- Generator: Sketch 51.3 (57544) - http://www.bohemiancoding.com/sketch -->
    <title>lightbulb</title>
    <desc>Created with Sketch.</desc>
    <defs></defs>
    <g id="Page-1" stroke="none" stroke-width="1" fill="none" fill-rule="evenodd">
        <g id="lightbulb" fill-rule="nonzero">
            <circle id="Oval" fill="#FDFEFF" cx="20" cy="20" r="20"></circle>
            <path d="M30.204375,15.1365625 C30.3290625,17.636875 29.5484375,19.9521875 28.161875,21.7825 C25.915625,24.7478125 25.20125,27.8275 25.20125,31.18625 L14.9146875,31.18625 C14.9146875,27.8303125 14.1546875,24.793125 11.8525,21.64625 C10.6240625,19.966875 9.8984375,17.89625 9.8984375,15.65625 C9.8984375,9.8309375 14.805625,5.1521875 20.710625,5.52125 C25.8146875,5.8403125 29.9496875,10.02875 30.204375,15.1365625 Z" id="Shape" fill="#F5EA07"></path>
            <path d="M11.5909375,16.5396875 C11.4978125,14.0703125 11.8684375,12.2871875 14.134375,9.73375 C16.6721875,7.4778125 18.4290625,7.0978125 20.9415625,7.1934375 C18.6115625,7.5203125 17.0278125,7.8778125 14.5328125,10.1328125 C12.150625,12.7584375 11.8646875,14.581875 11.5909375,16.5396875 Z" id="Shape" fill="#FDFEFF"></path>
            <path d="M21.9875,35.7190625 L18.128125,35.7190625 L18.128125,36.6934375 C18.1281681,36.9662828 18.3493422,37.1874569 18.6221875,37.1875 L21.49375,37.1875 C21.7665953,37.1874569 21.9877694,36.9662828 21.9878125,36.6934375 L21.9878125,35.7190625 L21.9875,35.7190625 Z" id="Shape" fill="#D2D2D4"></path>
            <path d="M23.2746875,36.001875 L16.8409375,36.001875 C15.7771875,36.001875 14.9146875,35.139375 14.9146875,34.075625 L14.9146875,30.2678125 L25.20125,30.2678125 L25.20125,34.075625 C25.2009375,35.139375 24.33875,36.001875 23.2746875,36.001875 Z" id="Shape" fill="#656D7A"></path>
            <g id="Group" transform="translate(14.843750, 31.171875)" fill="#4D535F">
                <path d="M0.0709375,0.015625 L10.3575,0.015625 L10.3575,0.5675 L0.0709375,0.5675 L0.0709375,0.015625 Z M0.0709375,1.24375 L10.3575,1.24375 L10.3575,1.795625 L0.0709375,1.795625 L0.0709375,1.24375 Z M0.0709375,2.475 L10.3575,2.475 L10.3575,3.026875 L0.0709375,3.026875 L0.0709375,2.475 Z" id="Shape"></path>
            </g>
            <g id="Group" transform="translate(7.343750, 2.812500)" fill="#656D7A">
                <path d="M0.000625,12.169375 L1.7625,12.169375 L1.7625,13.2578125 L0.000625,13.2578125 L0.000625,12.169375 Z M3.50257812,18.6605469 L1.97679687,19.5414844 L1.43257813,18.5989063 L2.95835938,17.7179688 L3.50257812,18.6605469 Z M23.996875,6.8275 L22.4713281,7.70828125 L21.9271094,6.76570313 L23.4525781,5.88492188 L23.996875,6.8275 Z M19.5424219,1.97609375 L18.6617188,3.50164062 L17.7191406,2.95742188 L18.5999219,1.431875 L19.5424219,1.97609375 Z M12.16875,0 L13.2571875,0 L13.2571875,1.7615625 L12.16875,1.7615625 L12.16875,0 Z M6.82890625,1.43328125 L7.7096875,2.95875 L6.76710938,3.50296875 L5.88632813,1.9775 L6.82890625,1.43328125 Z M22.4695313,17.7185938 L23.9953125,18.5995313 L23.4510937,19.5421094 L21.9253125,18.6611719 L22.4695313,17.7185938 Z M1.97460938,5.88570313 L3.5,6.76640625 L2.95578125,7.70898438 L1.4303125,6.82820313 L1.97460938,5.88570313 Z" id="Shape"></path>
            </g>
            <path d="M22.3925,14.583125 C22.3925,13.29375 21.3471875,12.2484375 20.0578125,12.2484375 C18.7684375,12.2484375 17.723125,13.29375 17.723125,14.583125 C17.723125,15.403125 18.146875,16.1234375 18.7865625,16.5396875 L18.7865625,19.341875 L21.3290625,19.341875 L21.3290625,16.5396875 C21.96875,16.123125 22.3925,15.403125 22.3925,14.583125 Z" id="Shape" fill="#4D535F"></path>
            <path d="M31.1028125,11.2175 C29.7746875,11.2175 28.665,12.383125 28.415,13.9246875 L19.3725,13.9246875 L19.3725,15.24 L28.415,15.24 C28.665,16.7815625 29.7746875,17.9471875 31.1028125,17.9471875 C32.614375,17.9471875 33.8440625,16.4378125 33.8440625,14.5821875 C33.8440625,12.7265625 32.6140625,11.2175 31.1028125,11.2175 Z M32.52875,14.5825 C32.52875,15.7128125 31.8890625,16.6321875 31.1028125,16.6321875 C30.3165625,16.6321875 29.676875,15.7128125 29.676875,14.5825 C29.676875,13.4521875 30.3165625,12.5325 31.1028125,12.5325 C31.8890625,12.5328125 32.52875,13.4521875 32.52875,14.5825 Z" id="Shape" fill="#656D7A"></path>
        </g>
    </g>
</svg>