<svg width="51" height="51" viewBox="0 0 51 51" fill="none" xmlns="http://www.w3.org/2000/svg">
<path d="M39.8535 34.2181C39.6427 34.0242 37.5639 34.1583 37.5639 34.1583L37.5402 31.959L36.5235 30.7968L34.1134 30.7574L34.1111 30.754C34.1009 30.7867 34.1099 28.3349 34.1099 28.3349L32.9849 27.5199C32.9849 27.5199 30.7969 27.4556 30.7789 27.4387L30.603 25.1909L28.5773 22.7932C29.2773 21.2827 29.6809 19.6041 29.6809 17.8286C29.6809 11.296 24.3804 6 17.8423 6C11.3005 5.99871 6 11.2948 6 17.8273C6 24.3611 11.3005 29.6581 17.8398 29.6581C19.6536 29.6581 21.366 29.2377 22.9024 28.5083L36.4067 41.9856C36.4067 41.9856 42.0685 42.0706 42.0685 42.0684L42.0775 36.3148C42.0775 36.3148 41.1825 35.4423 39.8535 34.2181ZM15.5808 18.4136C14.0309 18.4136 12.775 17.1499 12.775 15.5909C12.775 14.0319 14.0308 12.767 15.5808 12.767C17.1309 12.767 18.3878 14.0318 18.3878 15.5909C18.3878 17.15 17.1308 18.4136 15.5808 18.4136Z" fill="#EFC75E"/>
<path d="M15.5831 11.6359C13.4041 11.6359 11.6376 13.4024 11.6376 15.5814C11.6376 17.7604 13.4041 19.5269 15.5831 19.5269C17.7632 19.5269 19.5286 17.7604 19.5286 15.5814C19.5286 13.4024 17.7632 11.6359 15.5831 11.6359ZM15.5831 17.2724C14.6496 17.2724 13.8922 16.5148 13.8922 15.5815C13.8922 14.6471 14.6498 13.8907 15.5831 13.8907C16.5165 13.8907 17.274 14.6471 17.274 15.5815C17.274 16.5148 16.5165 17.2724 15.5831 17.2724Z" fill="#CA9F30"/>
<path d="M25.6114 26.7393C24.5348 27.6772 24.1314 27.9374 22.9769 28.5559L36.4864 42.0653L40.9469 42.0737L25.6114 26.7393Z" fill="#CA9F30"/>
</svg>
