<?xml version="1.0" encoding="iso-8859-1"?>
<!-- Generator: Adobe Illustrator 19.0.0, SVG Export Plug-In . SVG Version: 6.00 Build 0)  -->
<svg version="1.1" id="Capa_1" xmlns="http://www.w3.org/2000/svg" xmlns:xlink="http://www.w3.org/1999/xlink" x="0px" y="0px"
	 viewBox="0 0 512 512" style="enable-background:new 0 0 512 512;" xml:space="preserve">
<circle style="fill:#FDFEFF;" cx="256" cy="256" r="256"/>
<path style="fill:#F5EA07;" d="M386.616,193.748c1.596,32.004-8.396,61.64-26.144,85.068
	c-28.752,37.956-37.896,77.376-37.896,120.368H190.908c0-42.956-9.728-81.832-39.196-122.112
	c-15.724-21.496-25.012-48-25.012-76.672c0-74.564,62.812-134.452,138.396-129.728C330.428,74.756,383.356,128.368,386.616,193.748z
	"/>
<path style="fill:#FDFEFF;" d="M148.364,211.708c-1.192-31.608,3.552-54.432,32.556-87.116
	c32.484-28.876,54.972-33.74,87.132-32.516c-29.824,4.184-50.096,8.76-82.032,37.624
	C155.528,163.308,151.868,186.648,148.364,211.708z"/>
<path style="fill:#D2D2D4;" d="M281.44,457.204h-49.4v12.472c0,3.492,2.832,6.324,6.324,6.324h36.756
	c3.492,0,6.324-2.832,6.324-6.324v-12.472H281.44z"/>
<path style="fill:#656D7A;" d="M297.916,460.824h-82.352c-13.616,0-24.656-11.04-24.656-24.656v-48.74h131.668v48.74
	C322.572,449.784,311.536,460.824,297.916,460.824z"/>
<g>
	<rect x="190.908" y="399.2" style="fill:#4D535F;" width="131.668" height="7.064"/>
	<rect x="190.908" y="414.92" style="fill:#4D535F;" width="131.668" height="7.064"/>
	<rect x="190.908" y="430.68" style="fill:#4D535F;" width="131.668" height="7.064"/>
</g>
<g>
	<rect x="94.008" y="191.768" style="fill:#656D7A;" width="22.552" height="13.932"/>
	
		<rect x="114.304" y="267.49" transform="matrix(-0.866 0.5 -0.5 -0.866 371.5654 449.349)" style="fill:#656D7A;" width="22.552" height="13.932"/>
	
		<rect x="376.631" y="116.032" transform="matrix(-0.866 0.5 -0.5 -0.866 785.3377 35.5604)" style="fill:#656D7A;" width="22.548" height="13.932"/>
	
		<rect x="321.195" y="60.615" transform="matrix(-0.5 0.866 -0.866 -0.5 557.2334 -186.5531)" style="fill:#656D7A;" width="22.548" height="13.932"/>
	<rect x="249.76" y="36" style="fill:#656D7A;" width="13.932" height="22.548"/>
	
		<rect x="169.741" y="60.63" transform="matrix(0.5 0.866 -0.866 0.5 149.0452 -122.9652)" style="fill:#656D7A;" width="22.548" height="13.932"/>
	
		<rect x="376.62" y="267.512" transform="matrix(0.866 0.5 -0.5 0.866 189.2126 -157.1773)" style="fill:#656D7A;" width="22.552" height="13.932"/>
	
		<rect x="114.282" y="116.044" transform="matrix(0.866 0.5 -0.5 0.866 78.3284 -46.2984)" style="fill:#656D7A;" width="22.548" height="13.932"/>
</g>
<path style="fill:#4D535F;" d="M286.624,186.664c0-16.504-13.38-29.884-29.884-29.884s-29.884,13.38-29.884,29.884
	c0,10.496,5.424,19.716,13.612,25.044v35.868h32.544v-35.868C281.2,206.376,286.624,197.16,286.624,186.664z"/>
<path style="fill:#656D7A;" d="M398.116,143.584c-17,0-31.204,14.92-34.404,34.652H247.968v16.836h115.744
	c3.2,19.732,17.404,34.652,34.404,34.652c19.348,0,35.088-19.32,35.088-43.072S417.46,143.584,398.116,143.584z M416.368,186.656
	c0,14.468-8.188,26.236-18.252,26.236c-10.064,0-18.252-11.768-18.252-26.236c0-14.468,8.188-26.24,18.252-26.24
	C408.18,160.42,416.368,172.188,416.368,186.656z"/>
<g>
</g>
<g>
</g>
<g>
</g>
<g>
</g>
<g>
</g>
<g>
</g>
<g>
</g>
<g>
</g>
<g>
</g>
<g>
</g>
<g>
</g>
<g>
</g>
<g>
</g>
<g>
</g>
<g>
</g>
</svg>
